<svg width="45" height="45" viewBox="0 0 45 45" fill="none" xmlns="http://www.w3.org/2000/svg">
<g clip-path="url(#clip0)">
<path d="M22.4974 0C18.0473 0.000506065 13.6973 1.3206 9.99752 3.79336C6.2977 6.26611 3.41421 9.78046 1.71171 13.892C0.00920697 18.0035 -0.435854 22.5276 0.43281 26.892C1.30147 31.2565 3.44485 35.2654 6.59189 38.4117C9.73892 41.558 13.7483 43.7005 18.113 44.5682C22.4776 45.4358 27.0016 44.9898 31.1127 43.2863C35.2239 41.5829 38.7376 38.6986 41.2095 34.9982C43.6814 31.2978 45.0005 26.9475 45 22.4974C44.9952 16.5313 42.6227 10.811 38.4036 6.59278C34.1844 2.37457 28.4635 0.00338796 22.4974 0V0ZM42.3877 14.9599C43.1349 16.9219 43.5834 18.9849 43.7181 21.08L43.7514 21.561L38.2838 16.4771L42.3186 14.7757L42.3877 14.9599ZM38.1354 8.08762L38.4552 8.44326C39.7836 9.95 40.893 11.6365 41.7506 13.4529L41.8376 13.632L37.9 15.29L38.1354 8.08762ZM22.4974 33.3099L14.855 30.1399L11.6952 22.4974L14.8601 14.855L22.5153 11.6901L30.1552 14.8601L33.3099 22.5154L30.1398 30.145L22.4974 33.3099ZM29.8251 31.6085L28.1442 36.109L23.7665 34.1184L29.8251 31.6085ZM21.236 34.1184L16.8609 36.109L15.1697 31.6059L21.236 34.1184ZM13.3915 29.8252L8.89354 28.1442L10.8815 23.7691L13.3915 29.8252ZM8.89354 16.8635L13.3941 15.1748L10.8815 21.2361L8.89354 16.8635ZM15.1748 13.3915L16.8635 8.89357L21.236 10.8816L15.1748 13.3915ZM23.7639 10.8816L28.1442 8.89101L29.8303 13.3915L23.7639 10.8816ZM34.1235 23.7614L36.109 28.1365L31.6059 29.8252L34.1235 23.7614ZM34.1235 21.2463L31.6161 15.1748L36.1115 16.8635L34.1235 21.2463ZM31.2682 13.7318L29.2392 8.32045L36.9021 8.04412L36.6463 15.7505L31.2682 13.7318ZM31.3552 3.16494C33.2186 4.02109 34.9489 5.14131 36.4928 6.49108L36.8561 6.80834L29.5232 7.06419L31.1735 3.07283L31.3552 3.16494ZM23.8381 1.27928C25.8932 1.40969 27.9181 1.8407 29.8482 2.55856L30.0349 2.62764L28.3821 6.62156L23.3545 1.24858L23.8381 1.27928ZM27.7399 7.72686L22.5153 10.1012L17.2345 7.70895L22.4616 2.09546L27.7399 7.72686ZM15.0955 2.55856C17.0184 1.84345 19.0353 1.41249 21.0825 1.27928L21.5661 1.24858L16.5641 6.62156L14.9062 2.63276L15.0955 2.55856ZM8.44324 6.54992C9.98675 5.18776 11.7199 4.05701 13.5885 3.19309L13.7702 3.10865L15.423 7.10513L8.09271 6.86974L8.44324 6.54992ZM15.7403 8.34092L13.7318 13.7318L8.32042 15.7607L8.0441 8.10297L15.7403 8.34092ZM3.18795 13.5962C4.04104 11.751 5.15615 10.0387 6.49873 8.51234L6.81599 8.14902L7.07185 15.423L3.10352 13.7779L3.18795 13.5962ZM1.27926 21.167C1.40469 19.0913 1.83576 17.0454 2.55854 15.0955L2.63018 14.9087L6.65224 16.5795L1.24344 21.648L1.27926 21.167ZM2.59692 29.971C1.86033 28.0295 1.41626 25.9894 1.27926 23.9175L1.24856 23.4339L6.65224 28.4717L2.66088 30.1578L2.59692 29.971ZM6.87484 36.9124L6.55502 36.5491C5.209 35.025 4.08885 33.3155 3.22889 31.4729L3.14445 31.2912L7.10767 29.6205L6.87484 36.9124ZM2.098 22.5409L7.72684 17.2652L10.1012 22.5154L7.70893 27.7783L2.098 22.5409ZM8.34601 29.2495L13.7318 31.2682L15.7633 36.6796L8.10295 36.9559L8.34601 29.2495ZM13.5859 41.8044C11.7458 40.9532 10.0372 39.8426 8.51232 38.5064L8.149 38.1891L15.4102 37.9333L13.7676 41.8914L13.5859 41.8044ZM21.1618 43.7258C19.0852 43.6013 17.0383 43.1702 15.0878 42.4466L14.901 42.3775L16.5667 38.3529L21.6454 43.7514L21.1618 43.7258ZM17.2652 37.2783L22.5153 34.8988L27.7783 37.2911L22.5409 42.9045L17.2652 37.2783ZM29.8891 42.444C27.973 43.1582 25.963 43.5892 23.9225 43.7233L23.439 43.754L28.4256 38.4015L30.0784 42.38L29.8891 42.444ZM36.5542 38.4501C35.0079 39.8187 33.2691 40.9532 31.3935 41.8172L31.2119 41.9016L29.5514 37.8949L36.9175 38.1303L36.5542 38.4501ZM29.2495 36.6591L31.2733 31.2861L36.6795 29.2572L36.961 36.9201L29.2495 36.6591ZM34.9039 22.5026L37.291 17.2396L42.9071 22.4591L37.2782 27.7348L34.9039 22.5026ZM41.8274 31.3782C40.9693 33.2344 39.8492 34.9577 38.5012 36.4953L38.184 36.8587L37.9281 29.5386L41.9118 31.194L41.8274 31.3782ZM42.4516 29.8712L42.3826 30.058L38.3784 28.4001L43.7514 23.3597L43.7207 23.8433C43.5945 25.9021 43.1669 27.9313 42.4516 29.8661V29.8712Z" fill="url(#paint0_linear)"/>
</g>
<defs>
<linearGradient id="paint0_linear" x1="-2.05586e-05" y1="22.5" x2="45" y2="22.5" gradientUnits="userSpaceOnUse">
<stop stop-color="#7471CC"/>
<stop offset="1" stop-color="#43BEE8"/>
</linearGradient>
<clipPath id="clip0">
<rect width="45" height="45" fill="white"/>
</clipPath>
</defs>
</svg>
